<svg width="112" height="25" viewBox="0 0 112 25" fill="none" xmlns="http://www.w3.org/2000/svg">
<path d="M18.5426 24.8889H5.05708C2.26894 24.8889 0 22.496 0 19.5555V5.33333C0 2.39289 2.26894 0 5.05708 0H13.4855C13.9326 0 14.3614 0.187301 14.6775 0.520699C14.9936 0.854097 15.1712 1.03794 15.1712 1.50943C15.1712 1.98093 14.9936 2.16477 14.6775 2.49817C14.3614 2.83156 13.9326 3.01887 13.4855 3.01887H5.05708C4.12658 3.01887 2.8625 3.81709 2.8625 4.79664V19.5555C2.8625 20.5351 4.12658 21.87 5.05708 21.87H19.0515C19.982 21.87 20.7372 20.5351 20.7372 19.5555V14.2222C20.7372 13.7507 20.9148 13.2985 21.2309 12.9651C21.5471 12.6317 21.7214 12.4444 22.1685 12.4444C22.6155 12.4444 22.7899 12.6317 23.106 12.9651C23.4221 13.2985 23.5997 13.7507 23.5997 14.2222V19.5555C23.5997 22.496 21.3308 24.8889 18.5426 24.8889ZM13.7654 16.6758C13.1754 16.6758 12.6039 16.4287 12.1791 15.9807L7.93615 11.7761C7.53161 11.3277 7.30934 10.7302 7.31681 10.1113C7.32427 9.49236 7.35417 9.31416 7.72874 8.8218C8.14397 8.38436 8.44337 8.31395 9.03023 8.30673C9.6171 8.29952 10.1834 8.53456 10.6082 8.96167L13.2495 11.7491L19.3618 2.05135C19.5002 1.76996 19.6908 1.52069 19.9221 1.3183C20.1535 1.1159 20.421 0.964471 20.7088 0.872972C20.9966 0.781473 21.2988 0.751756 21.5977 0.785581C21.8966 0.819405 22.0964 0.886016 22.3593 1.03983C22.5061 1.12576 22.5556 1.19279 22.741 1.44235C22.741 1.44235 22.9406 1.68021 23.0192 1.98617C23.0979 2.29214 23.1176 2.61163 23.0772 2.92577C23.0368 3.23991 22.9371 3.54232 22.7839 3.81511L15.7326 15.4545C15.5639 15.7752 15.3269 16.0503 15.0402 16.2579C14.7535 16.4655 14.425 16.6001 14.0806 16.651L13.7654 16.6758Z" fill="#1458DD"/>
<path d="M33.7647 2.92907C34.7401 2.92907 35.5959 3.10375 36.332 3.4531C37.0865 3.78305 37.8135 4.29738 38.5128 4.9961L36.8289 7.12134C36.3504 6.65554 35.8811 6.31588 35.421 6.10239C34.9793 5.86948 34.4917 5.75303 33.958 5.75303C32.8538 5.75303 31.9888 6.33529 31.3631 7.49981C30.7374 8.66433 30.4245 10.6149 30.4245 13.3515C30.4245 16.0493 30.7374 17.9902 31.3631 19.1741C31.9888 20.3386 32.8722 20.9209 34.0132 20.9209C34.5837 20.9209 35.0806 20.8045 35.5038 20.5716C35.9271 20.3192 36.424 19.9408 36.9945 19.4361L38.6784 21.4741C38.0895 22.1728 37.381 22.755 36.5528 23.2208C35.7247 23.6672 34.7953 23.8904 33.7647 23.8904C31.6115 23.8904 29.9 23.0073 28.6302 21.2411C27.3604 19.475 26.7254 16.8451 26.7254 13.3515C26.7254 11.0419 27.0291 9.11073 27.6364 7.55804C28.2437 6.00534 29.0719 4.85053 30.1209 4.09359C31.1883 3.31724 32.4029 2.92907 33.7647 2.92907Z" fill="#1458DD"/>
<path d="M47.0102 7.64538C48.0592 7.64538 48.8873 8.04325 49.4946 8.83901C50.102 9.63477 50.4056 10.7022 50.4056 12.0414V23.4537H47.0102V12.449C47.0102 11.7115 46.909 11.1875 46.7065 10.8769C46.5225 10.547 46.2464 10.382 45.8784 10.382C45.1054 10.382 44.3417 11.1486 43.5872 12.6819V23.4537H40.1917V1.91012L43.5872 1.53165V9.88708C44.0472 9.13014 44.5441 8.56729 45.0778 8.19852C45.6299 7.82976 46.2741 7.64538 47.0102 7.64538Z" fill="#1458DD"/>
<path d="M63.8892 15.3894C63.8892 15.5641 63.8616 16.059 63.8063 16.8742H56.2702C56.3438 18.4657 56.6014 19.5817 57.0431 20.2222C57.5032 20.8433 58.1473 21.1538 58.9755 21.1538C59.546 21.1538 60.0613 21.0568 60.5213 20.8627C60.9814 20.6492 61.4783 20.3192 62.012 19.8728L63.4199 21.9107C62.1316 23.2305 60.5858 23.8904 58.7822 23.8904C56.8683 23.8904 55.396 23.1917 54.3654 21.7943C53.3532 20.3969 52.8471 18.4269 52.8471 15.8844C52.8471 13.3418 53.3348 11.333 54.3102 9.85797C55.2856 8.38291 56.6658 7.64538 58.451 7.64538C60.1625 7.64538 61.4967 8.30527 62.4537 9.62506C63.4107 10.9254 63.8892 12.8469 63.8892 15.3894ZM60.5766 14.3414C60.5766 12.8857 60.4109 11.8279 60.0797 11.1681C59.7484 10.4887 59.2147 10.1491 58.4786 10.1491C57.7976 10.1491 57.2732 10.479 56.9051 11.1389C56.5554 11.7794 56.3438 12.9148 56.2702 14.5452H60.5766V14.3414Z" fill="#1458DD"/>
<path d="M71.5051 7.64538C72.2965 7.64538 73.0142 7.79094 73.6583 8.08207C74.3024 8.3538 74.919 8.79049 75.5079 9.39216L74.0448 11.4301C73.6399 11.0807 73.2534 10.8284 72.8854 10.6731C72.5357 10.4985 72.1492 10.4111 71.726 10.4111C70.8978 10.4111 70.2721 10.8284 69.8488 11.663C69.4256 12.4781 69.2139 13.8659 69.2139 15.8261C69.2139 17.7282 69.4256 19.0674 69.8488 19.8437C70.2905 20.6201 70.9162 21.0082 71.726 21.0082C72.1308 21.0082 72.4989 20.9306 72.8302 20.7753C73.1614 20.6201 73.5479 20.3775 73.9896 20.0475L75.5079 22.1145C74.33 23.2985 73.0142 23.8904 71.5603 23.8904C69.6832 23.8904 68.2201 23.2208 67.1711 21.8816C66.1405 20.523 65.6253 18.5239 65.6253 15.8844C65.6253 14.1764 65.8645 12.7013 66.343 11.4592C66.8215 10.217 67.5024 9.27571 68.3858 8.63522C69.2875 7.97532 70.3273 7.64538 71.5051 7.64538Z" fill="#1458DD"/>
<path d="M80.6006 1.50253V23.4537H77.2051V1.881L80.6006 1.50253ZM87.9711 8.05296L84.1064 14.8654L88.3024 23.4537H84.6585L80.7386 15.0401L84.6585 8.05296H87.9711Z" fill="#1458DD"/>
<path d="M92.8054 23.8904C91.8117 23.8904 91.0203 23.5702 90.4314 22.9297C89.8609 22.2698 89.5756 21.3964 89.5756 20.3095V1.881L92.9711 1.50253V20.164C92.9711 20.4163 93.0263 20.6201 93.1367 20.7753C93.2471 20.9306 93.4128 21.0082 93.6336 21.0082C93.7624 21.0082 93.882 20.9888 93.9925 20.95C94.1213 20.9112 94.2041 20.8918 94.2409 20.8918L94.9034 23.3373C94.2777 23.7061 93.5784 23.8904 92.8054 23.8904Z" fill="#1458DD"/>
<path d="M99.9834 8.05296V23.4537H96.588V8.05296H99.9834ZM98.2719 0.367126C98.8792 0.367126 99.3669 0.570918 99.7349 0.9785C100.121 1.38608 100.315 1.91012 100.315 2.5506C100.315 3.17168 100.121 3.68601 99.7349 4.09359C99.3669 4.50117 98.8792 4.70496 98.2719 4.70496C97.6646 4.70496 97.1677 4.50117 96.7812 4.09359C96.4131 3.68601 96.2291 3.17168 96.2291 2.5506C96.2291 1.91012 96.4131 1.38608 96.7812 0.9785C97.1677 0.570918 97.6646 0.367126 98.2719 0.367126Z" fill="#1458DD"/>
<path d="M107.197 7.64538C108.927 7.64538 110.39 8.24705 111.586 9.45038L110.288 11.401C109.773 11.0128 109.285 10.7217 108.825 10.5276C108.365 10.3335 107.896 10.2364 107.418 10.2364C106.884 10.2364 106.461 10.3917 106.148 10.7022C105.853 10.9934 105.706 11.401 105.706 11.925C105.706 12.449 105.872 12.876 106.203 13.206C106.553 13.5165 107.243 13.8853 108.273 14.3123C109.543 14.8363 110.482 15.4574 111.089 16.1755C111.696 16.8936 112 17.8543 112 19.0577C112 20.5521 111.503 21.7361 110.509 22.6095C109.516 23.4634 108.255 23.8904 106.727 23.8904C105.734 23.8904 104.813 23.7061 103.967 23.3373C103.139 22.9491 102.412 22.4154 101.786 21.7361L103.442 19.8146C104.473 20.7656 105.522 21.2411 106.589 21.2411C107.197 21.2411 107.675 21.0762 108.025 20.7462C108.375 20.3969 108.549 19.9214 108.549 19.3197C108.549 18.8733 108.476 18.5142 108.329 18.2425C108.181 17.9514 107.924 17.6894 107.556 17.4565C107.188 17.2041 106.635 16.9324 105.899 16.6413C104.629 16.1173 103.718 15.5059 103.166 14.8072C102.633 14.1085 102.366 13.2157 102.366 12.1288C102.366 10.8284 102.798 9.76092 103.663 8.92635C104.547 8.07237 105.724 7.64538 107.197 7.64538Z" fill="#1458DD"/>
</svg>
