<svg xmlns="http://www.w3.org/2000/svg" width="24" height="25" viewBox="0 0 24 25" fill="none">
  <path d="M19.8784 15.5888C19.9373 15.6896 19.9756 15.801 19.9914 15.9167C20.0071 16.0323 20 16.15 19.9703 16.2629C19.9406 16.3757 19.8889 16.4817 19.8183 16.5746C19.7476 16.6675 19.6594 16.7456 19.5585 16.8044L12.4476 20.9524C12.3117 21.0317 12.1571 21.0735 11.9998 21.0735C11.8424 21.0735 11.6878 21.0317 11.5519 20.9524L4.441 16.8044C4.23753 16.6856 4.08958 16.4908 4.02968 16.2629C3.96978 16.035 4.00283 15.7926 4.12157 15.5891C4.2403 15.3855 4.435 15.2374 4.66287 15.1774C4.89073 15.1174 5.13311 15.1503 5.33673 15.2689L11.9998 19.1556L18.6628 15.2689C18.8664 15.1501 19.1089 15.1171 19.3369 15.1771C19.5648 15.2371 19.7597 15.3852 19.8784 15.5888ZM18.6628 11.7134L11.9998 15.6002L5.33673 11.7134C5.13311 11.5948 4.89073 11.5619 4.66287 11.622C4.435 11.682 4.2403 11.8301 4.12157 12.0336C4.00283 12.2371 3.96978 12.4795 4.02968 12.7074C4.08958 12.9353 4.23753 13.1301 4.441 13.249L11.5519 17.397C11.6878 17.4763 11.8424 17.5181 11.9998 17.5181C12.1571 17.5181 12.3117 17.4763 12.4476 17.397L19.5585 13.249C19.6594 13.1902 19.7478 13.1121 19.8185 13.0192C19.8892 12.9263 19.9409 12.8203 19.9707 12.7074C20.0004 12.5945 20.0076 12.4768 19.9919 12.3611C19.9761 12.2454 19.9378 12.1339 19.8789 12.0331C19.8201 11.9322 19.7419 11.8439 19.649 11.7732C19.556 11.7026 19.45 11.6509 19.3371 11.6213C19.2242 11.5916 19.1065 11.5844 18.9908 11.6003C18.8751 11.6161 18.7636 11.6545 18.6628 11.7134ZM4 8.92574C3.99999 8.77039 4.04071 8.61775 4.11808 8.48303C4.19546 8.34832 4.3068 8.23624 4.441 8.15797L11.5519 4.00995C11.6878 3.93064 11.8424 3.88885 11.9998 3.88885C12.1571 3.88885 12.3117 3.93064 12.4476 4.00995L19.5585 8.15797C19.6927 8.23625 19.8041 8.34833 19.8814 8.48304C19.9588 8.61775 19.9995 8.77039 19.9995 8.92574C19.9995 9.0811 19.9588 9.23374 19.8814 9.36845C19.8041 9.50316 19.6927 9.61524 19.5585 9.69352L12.4476 13.8415C12.3117 13.9208 12.1571 13.9626 11.9998 13.9626C11.8424 13.9626 11.6878 13.9208 11.5519 13.8415L4.441 9.69352C4.3068 9.61525 4.19546 9.50317 4.11808 9.36845C4.04071 9.23374 3.99999 9.0811 4 8.92574ZM6.65292 8.92574L11.9998 12.0447L17.3466 8.92574L11.9998 5.80677L6.65292 8.92574Z" fill="#606061"/>
</svg>