<svg xmlns="http://www.w3.org/2000/svg" width="20" height="20" viewBox="0 0 20 20" fill="none">
  <path d="M4.44794 5.96999C4.59941 4.60342 5.24957 3.34071 6.27396 2.42359C7.29835 1.50647 8.625 0.999374 9.99994 0.999374C11.3749 0.999374 12.7015 1.50647 13.7259 2.42359C14.7503 3.34071 15.4005 4.60342 15.5519 5.96999L15.8039 8.23599L15.8099 8.29299C15.939 9.41702 16.3051 10.5009 16.8839 11.473L16.9139 11.523L17.4909 12.486C18.0159 13.36 18.2779 13.797 18.2209 14.156C18.1833 14.3943 18.0608 14.6109 17.8759 14.766C17.5969 15 17.0869 15 16.0679 15H3.93194C2.91194 15 2.40194 15 2.12394 14.767C1.93855 14.6118 1.81563 14.3948 1.77794 14.156C1.72194 13.797 1.98394 13.36 2.50794 12.486L3.08694 11.522L3.11694 11.472C3.6953 10.5001 4.06101 9.41659 4.18994 8.29299L4.19594 8.23599L4.44794 5.96999Z" stroke="#606061" stroke-width="2"/>
  <path d="M6 15C6 16.0609 6.42143 17.0783 7.17157 17.8284C7.92172 18.5786 8.93913 19 10 19C11.0609 19 12.0783 18.5786 12.8284 17.8284C13.5786 17.0783 14 16.0609 14 15" stroke="#606061" stroke-width="2" stroke-linecap="round"/>
</svg>