<?xml version="1.0" encoding="UTF-8"?>
<svg xmlns="http://www.w3.org/2000/svg" id="Layer_1" data-name="Layer 1" viewBox="0 0 24 24">
  <path d="m19.5,1H4.5C2.019,1,0,3.019,0,5.5v13c0,2.481,2.019,4.5,4.5,4.5h15c2.481,0,4.5-2.019,4.5-4.5V5.5c0-2.481-2.019-4.5-4.5-4.5Zm3.5,17.5c0,1.93-1.57,3.5-3.5,3.5H4.5c-1.93,0-3.5-1.57-3.5-3.5V5.5c0-1.93,1.57-3.5,3.5-3.5h15c1.93,0,3.5,1.57,3.5,3.5v13Zm-3-12c0,.276-.224.5-.5.5h-10c-.276,0-.5-.224-.5-.5s.224-.5.5-.5h10c.276,0,.5.224.5.5Zm-14,0c0,.552-.448,1-1,1s-1-.448-1-1,.448-1,1-1,1,.448,1,1Zm14,5.5c0,.276-.224.5-.5.5h-10c-.276,0-.5-.224-.5-.5s.224-.5.5-.5h10c.276,0,.5.224.5.5Zm-14,0c0,.552-.448,1-1,1s-1-.448-1-1,.448-1,1-1,1,.448,1,1Zm14,5.5c0,.276-.224.5-.5.5h-10c-.276,0-.5-.224-.5-.5s.224-.5.5-.5h10c.276,0,.5.224.5.5Zm-14,0c0,.552-.448,1-1,1s-1-.448-1-1,.448-1,1-1,1,.448,1,1Z"/>
</svg>
