<svg xmlns="http://www.w3.org/2000/svg" width="24" height="24" viewBox="0 0 24 24" fill="none">
  <path fill-rule="evenodd" clip-rule="evenodd" d="M11.0053 7.00252C9.94347 7.00252 8.92516 7.42432 8.17436 8.17513C7.42355 8.92593 7.00176 9.94424 7.00176 11.006C7.00176 12.0678 7.42355 13.0861 8.17436 13.837C8.92516 14.5878 9.94347 15.0096 11.0053 15.0096C12.0671 15.0096 13.0854 14.5878 13.8362 13.837C14.587 13.0861 15.0088 12.0678 15.0088 11.006C15.0088 9.94424 14.587 8.92593 13.8362 8.17513C13.0854 7.42432 12.0671 7.00252 11.0053 7.00252ZM5 11.006C4.99988 10.0609 5.22284 9.1291 5.65074 8.28639C6.07865 7.44368 6.69941 6.71387 7.46256 6.15631C8.2257 5.59874 9.10967 5.22918 10.0426 5.07767C10.9755 4.92616 11.931 4.99697 12.8313 5.28437C13.7317 5.57176 14.5515 6.06761 15.2241 6.73158C15.8967 7.39556 16.4031 8.20892 16.7021 9.1055C17.0011 10.0021 17.0843 10.9566 16.9448 11.8914C16.8054 12.8261 16.4472 13.7148 15.8996 14.4851L18.719 17.3046C18.9014 17.4933 19.0022 17.7462 19 18.0086C18.9977 18.271 18.8924 18.522 18.7068 18.7076C18.5213 18.8932 18.2702 18.9984 18.0078 19.0007C17.7454 19.003 17.4926 18.9021 17.3038 18.7198L14.4853 15.9013C13.5869 16.5402 12.53 16.9194 11.4303 16.9974C10.3307 17.0754 9.23079 16.8493 8.25115 16.3437C7.27152 15.8381 6.44996 15.0726 5.87649 14.1311C5.30303 13.1896 4.99979 12.1084 5 11.006Z" fill="#BBBBBD"/>
</svg>