<svg xmlns="http://www.w3.org/2000/svg" width="24" height="25" viewBox="0 0 24 25" fill="#0000">
  <path d="M3 7.13885C3 6.2769 3.34241 5.45025 3.9519 4.84076C4.5614 4.23126 5.38805 3.88885 6.25 3.88885H17.75C18.612 3.88885 19.4386 4.23126 20.0481 4.84076C20.6576 5.45025 21 6.2769 21 7.13885V18.6389C21 19.5008 20.6576 20.3275 20.0481 20.937C19.4386 21.5464 18.612 21.8889 17.75 21.8889H6.25C5.38805 21.8889 4.5614 21.5464 3.9519 20.937C3.34241 20.3275 3 19.5008 3 18.6389V7.13885ZM6.25 5.38885C5.78587 5.38885 5.34075 5.57323 5.01256 5.90142C4.68437 6.22961 4.5 6.67473 4.5 7.13885V18.6389C4.5 19.6049 5.284 20.3889 6.25 20.3889H17.75C18.2141 20.3889 18.6592 20.2045 18.9874 19.8763C19.3156 19.5481 19.5 19.103 19.5 18.6389V7.13885C19.5 6.67473 19.3156 6.22961 18.9874 5.90142C18.6592 5.57323 18.2141 5.38885 17.75 5.38885H6.25Z" fill="#606061"/>
  <path d="M12.0254 10.1474H16.6254" stroke="#606061" stroke-width="1.67795" stroke-linecap="round" stroke-linejoin="round"/>
  <path d="M7 10.1473L7.62923 10.7765L9.51692 8.88885" stroke="#606061" stroke-width="1.67795" stroke-linecap="round" stroke-linejoin="round"/>
  <path d="M12.0254 16.0202H16.6254" stroke="#606061" stroke-width="1.67795" stroke-linecap="round" stroke-linejoin="round"/>
  <path d="M7 16.0204L7.62923 16.6496L9.51692 14.7619" stroke="#606061" stroke-width="1.67795" stroke-linecap="round" stroke-linejoin="round"/>
</svg>